<svg xmlns="http://www.w3.org/2000/svg" width="43" height="48" fill="none"><path fill="#53EE53" d="M14.018 35.3156h-.1352a.5277.5277 0 0 1-.1353-.0176 5.6312 5.6312 0 0 1-1.9774-.729 2.5122 2.5122 0 0 1-.9671-1.1348 3.8991 3.8991 0 0 1-.2705-1.4878l.0351-1.7949a2.547 2.547 0 0 0-.2015-1.0902 1.374 1.374 0 0 0-.5546-.6235A1.7262 1.7262 0 0 0 9 28.2173h-.0636a.7918.7918 0 0 1-.5708-.2286.8262.8262 0 0 1 0-1.1605.7933.7933 0 0 1 .5708-.2286h.1001a1.805 1.805 0 0 0 .7832-.2367 1.4069 1.4069 0 0 0 .541-.6248 2.4952 2.4952 0 0 0 .2015-1.0726l-.0352-1.7922a4.2556 4.2556 0 0 1 .1502-1.1524 2.536 2.536 0 0 1 .5004-.9589 3.042 3.042 0 0 1 .9766-.7386 6.3074 6.3074 0 0 1 1.5906-.5099.7807.7807 0 0 1 .7385.1664.8476.8476 0 0 1 .2462.6073.6317.6317 0 0 1-.1664.422.9459.9459 0 0 1-.4315.2813 3.5599 3.5599 0 0 0-1.055.5411 1.3844 1.3844 0 0 0-.4652.6857 3.4664 3.4664 0 0 0-.115.959l.0352 1.8287a2.3113 2.3113 0 0 1-.51 1.5919 3.045 3.045 0 0 1-1.3891.8522v-.0812a3.0459 3.0459 0 0 1 1.3891.8535 2.3073 2.3073 0 0 1 .51 1.5906l-.0352 1.8287a3.2832 3.2832 0 0 0 .115.9319c.0821.2677.2445.5038.4652.6763.321.2426.6766.4355 1.055.5721a.7803.7803 0 0 1 .5979.7385.7532.7532 0 0 1-.211.5275.665.665 0 0 1-.5005.2286Z"/><path fill="#53EE53" d="M14.018 35.6524h-.1352a.9074.9074 0 0 1-.2151-.0271 5.843 5.843 0 0 1-2.0829-.775 2.8614 2.8614 0 0 1-1.0929-1.289 4.2653 4.2653 0 0 1-.2976-1.6231l.0352-1.8002a2.2017 2.2017 0 0 0-.1691-.9374 1.0341 1.0341 0 0 0-.4166-.4774 1.3943 1.3943 0 0 0-.6546-.1759 1.162 1.162 0 0 1-.8616-.3232 1.0971 1.0971 0 0 1-.3409-.8224 1.1338 1.1338 0 0 1 .706-1.0633c.14-.057.2899-.0855.441-.0837h.1028a1.4719 1.4719 0 0 0 .6114-.192 1.047 1.047 0 0 0 .4057-.4788 2.1632 2.1632 0 0 0 .1691-.9265l-.0351-1.7854a4.5953 4.5953 0 0 1 .1623-1.2498 2.9064 2.9064 0 0 1 .5667-1.0821 3.3936 3.3936 0 0 1 1.082-.8223 6.535 6.535 0 0 1 1.6786-.5411 1.1084 1.1084 0 0 1 1.0469.2624 1.1812 1.1812 0 0 1 .3422.8427.9821.9821 0 0 1-.2489.6438 1.2972 1.2972 0 0 1-.5803.3801 3.1906 3.1906 0 0 0-.9468.4761 1.0465 1.0465 0 0 0-.3557.518 3.1474 3.1474 0 0 0-.1014.8657l.0351 1.8219a2.6453 2.6453 0 0 1-.5951 1.8219 3.0314 3.0314 0 0 1-.729.5938 3.079 3.079 0 0 1 .729.591 2.6509 2.6509 0 0 1 .5951 1.8179l-.0351 1.8341c-.0062.2802.028.5599.1014.8305.0631.203.1873.3815.3557.5112.2949.219.6203.3935.9658.5181a1.104 1.104 0 0 1 .8115 1.0536 1.082 1.082 0 0 1-.3002.7561 1.0083 1.0083 0 0 1-.7494.3368Zm-.0257-15.8251a1.0585 1.0585 0 0 0-.1785.0176 6.0227 6.0227 0 0 0-1.4973.4775 2.7385 2.7385 0 0 0-.8697.6546 2.2051 2.2051 0 0 0-.4342.8332 3.9498 3.9498 0 0 0-.1352 1.0604l.0351 1.7854a2.8307 2.8307 0 0 1-.2353 1.2268 1.7344 1.7344 0 0 1-.6763.7696 2.1435 2.1435 0 0 1-.9265.2827H8.939a.4495.4495 0 0 0-.3354.1352.487.487 0 0 0 0 .6763.454.454 0 0 0 .3368.1353 2.1456 2.1456 0 0 1 1.0482.2705c.3039.1792.5449.448.6898.7696.1693.39.2497.8127.2354 1.2376l-.0352 1.8003a3.5994 3.5994 0 0 0 .2475 1.3525c.1746.4058.4691.7485.844.982a5.3091 5.3091 0 0 0 1.8571.6763l.1948.0108a.3297.3297 0 0 0 .261-.119.4143.4143 0 0 0 .1218-.2976c0-.1352-.0447-.2948-.3788-.4233a4.2927 4.2927 0 0 1-1.151-.6276 1.7128 1.7128 0 0 1-.5748-.8413 3.6368 3.6368 0 0 1-.1353-1.028l.0352-1.8341a1.9899 1.9899 0 0 0-.4247-1.3606 2.6248 2.6248 0 0 0-1.0347-.6844.3273.3273 0 0 1-.3003-.0487.3373.3373 0 0 1-.1353-.2705.4055.4055 0 0 1 .1353-.3084.3517.3517 0 0 1 .3003-.0852 2.6369 2.6369 0 0 0 1.036-.6844 1.997 1.997 0 0 0 .4234-1.3675l-.0352-1.8206a3.7545 3.7545 0 0 1 .1353-1.059 1.7104 1.7104 0 0 1 .5748-.8521 3.7975 3.7975 0 0 1 1.1578-.5952.6003.6003 0 0 0 .2786-.1907.2883.2883 0 0 0 .0853-.2002.5095.5095 0 0 0-.1515-.3733.318.318 0 0 0-.253-.0865v.004ZM28.4013 35.298a.5604.5604 0 0 1-.51-.2908 1.031 1.031 0 0 1-.1758-.518.6154.6154 0 0 1 .1677-.4301.9822.9822 0 0 1 .4301-.2706 3.3244 3.3244 0 0 0 1.0645-.541 1.3935 1.3935 0 0 0 .4572-.6938 3.5328 3.5328 0 0 0 .1136-.9468l-.0352-1.8301a2.2766 2.2766 0 0 1 .5194-1.6001 3.1788 3.1788 0 0 1 1.3796-.844v.0704a3.2948 3.2948 0 0 1-1.3796-.8616 2.248 2.248 0 0 1-.5194-1.5825l.0352-1.8287a3.3138 3.3138 0 0 0-.1136-.9468 1.4258 1.4258 0 0 0-.4667-.6763 3.543 3.543 0 0 0-1.055-.5626.7833.7833 0 0 1-.5978-.7399.7534.7534 0 0 1 .211-.5275.6766.6766 0 0 1 .5099-.2286h.1353a.598.598 0 0 1 .1352.0176 5.3292 5.3292 0 0 1 1.9707.7277c.4287.2765.7653.6744.9671 1.1429.1863.4759.2782.9836.2705 1.4946l-.0351 1.7935a2.5203 2.5203 0 0 0 .2029 1.0902c.1169.2624.3139.4811.5626.6248.2451.136.5192.2112.7994.2192h.073a.7988.7988 0 0 1 .5722.2286.8289.8289 0 0 1 0 1.1605.7926.7926 0 0 1-.5722.2285h-.1055a1.593 1.593 0 0 0-.7818.2286 1.4624 1.4624 0 0 0-.541.6236 2.4714 2.4714 0 0 0-.2029 1.082l.0352 1.7935a4.5485 4.5485 0 0 1-.1353 1.1524 2.4045 2.4045 0 0 1-.5004.9576 3.1557 3.1557 0 0 1-.9847.7385 6.262 6.262 0 0 1-1.592.51 1.3429 1.3429 0 0 1-.1352.0257 1.1137 1.1137 0 0 1-.1731.0094Z"/><path fill="#53EE53" d="M28.4013 35.6321a.8956.8956 0 0 1-.7994-.4545 1.3521 1.3521 0 0 1-.2245-.6925.9464.9464 0 0 1 .2556-.6573 1.3386 1.3386 0 0 1 .5721-.3598 3.034 3.034 0 0 0 .9468-.4721 1.0818 1.0818 0 0 0 .3517-.5302 3.2465 3.2465 0 0 0 .1001-.8561l-.0352-1.8233a2.6115 2.6115 0 0 1 .6087-1.8354 3.1727 3.1727 0 0 1 .7344-.5857 3.2763 3.2763 0 0 1-.7344-.5911 2.5699 2.5699 0 0 1-.6087-1.8111l.0352-1.8354a2.9892 2.9892 0 0 0-.0987-.8372 1.1032 1.1032 0 0 0-.3625-.5154 3.296 3.296 0 0 0-.9536-.5031 1.094 1.094 0 0 1-.5167-1.8138 1.0114 1.0114 0 0 1 .7575-.3368h.1352a.9814.9814 0 0 1 .2056.0243 5.5829 5.5829 0 0 1 2.0951.7737c.4802.315.8567.7649 1.0821 1.2931a4.2828 4.2828 0 0 1 .2976 1.623l-.0352 1.8003a2.1984 2.1984 0 0 0 .1691.936c.0867.2001.235.3674.4233.4774.1991.1101.4218.1705.6493.1759a1.1662 1.1662 0 0 1 .8602.3219 1.1685 1.1685 0 0 1 0 1.6488 1.1295 1.1295 0 0 1-.8116.3232h-.1041a1.2271 1.2271 0 0 0-.606.1786 1.1269 1.1269 0 0 0-.4193.4842 2.1654 2.1654 0 0 0-.1677.9333l.0352 1.7867a4.9934 4.9934 0 0 1-.1501 1.243 2.7528 2.7528 0 0 1-.5722 1.0916 3.4732 3.4732 0 0 1-1.082.8223 6.5657 6.5657 0 0 1-1.6786.541 1.1863 1.1863 0 0 1-.1542.0312 1.5184 1.5184 0 0 1-.2001.0013Zm3.3151-7.9098a2.7222 2.7222 0 0 0-1.0347.6763 1.964 1.964 0 0 0-.4301 1.3715l.0351 1.8219a3.8998 3.8998 0 0 1-.1258 1.0469 1.7384 1.7384 0 0 1-.5653.8616 3.6382 3.6382 0 0 1-1.1727.5978.6488.6488 0 0 0-.2881.1799.2696.2696 0 0 0-.0812.2042.6935.6935 0 0 0 .1272.3422.3202.3202 0 0 0 .3354.1231.9492.9492 0 0 0 .1015-.0203 6.0557 6.0557 0 0 0 1.5216-.4829 2.8152 2.8152 0 0 0 .8805-.6573 2.103 2.103 0 0 0 .4315-.8251c.09-.3476.1355-.7053.1353-1.0644l-.0352-1.7868a2.8272 2.8272 0 0 1 .2367-1.2376 1.7886 1.7886 0 0 1 .6763-.7628 1.919 1.919 0 0 1 .9468-.2787h.1068a.4555.4555 0 0 0 .3382-.1352.4311.4311 0 0 0 .1352-.3368.439.439 0 0 0-.1352-.3368.4595.4595 0 0 0-.3368-.1353 2.1763 2.1763 0 0 1-1.0347-.2705 1.691 1.691 0 0 1-.7034-.7723 2.8825 2.8825 0 0 1-.2353-1.2362l.0351-1.8003a3.5962 3.5962 0 0 0-.2475-1.362 2.2144 2.2144 0 0 0-.8453-.9901 5.0281 5.0281 0 0 0-1.8503-.6682l-.2002-.0108a.3324.3324 0 0 0-.2611.1204.4046.4046 0 0 0-.1217.2962c0 .1352.046.2948.3814.4247a3.8318 3.8318 0 0 1 1.1524.6208 1.758 1.758 0 0 1 .5708.8359c.0922.3379.1355.6872.1285 1.0374l-.0352 1.8368c-.0343.4892.1196.973.4301 1.3526a2.8552 2.8552 0 0 0 1.0402.6952.3464.3464 0 0 1 .2894.0527.3373.3373 0 0 1 .1353.2706.4056.4056 0 0 1-.1353.3097.3617.3617 0 0 1-.2962.096v-.004Z"/><path fill="#53EE53" d="M35.3156 48H7.1037A7.113 7.113 0 0 1 0 40.8963V7.1051A7.1132 7.1132 0 0 1 7.1037 0h18.0162a7.086 7.086 0 0 1 5.037 2.0883l10.1727 10.1645a7.169 7.169 0 0 1 2.0897 5.0411v23.6023A7.113 7.113 0 0 1 35.3156 48ZM7.1037 3.3814a3.729 3.729 0 0 0-3.7223 3.7237v33.7912a3.7278 3.7278 0 0 0 3.7223 3.7223h28.2119a3.7283 3.7283 0 0 0 2.6305-1.0918 3.7283 3.7283 0 0 0 1.0918-2.6305v-23.605a3.7681 3.7681 0 0 0-1.097-2.6484L27.7669 4.477a3.7201 3.7201 0 0 0-2.647-1.097l-18.0162.0014Z"/><path fill="#53EE53" d="M39.2259 16.8584h-6.2962a7.0875 7.0875 0 0 1-7.0807-7.0807V1.6961h3.3814v8.0816a3.703 3.703 0 0 0 3.6993 3.6993h6.2962v3.3814Z"/></svg>