<svg width="39" height="48" viewBox="0 0 39 48" fill="none" xmlns="http://www.w3.org/2000/svg">
<path d="M38.4 9.6C38.4 4.3968 29.6088 0 19.2 0C8.7912 0 0 4.3968 0 9.6V14.4C0 19.6032 8.7912 24 19.2 24C29.6088 24 38.4 19.6032 38.4 14.4V9.6ZM19.2 40.8C8.7912 40.8 0 36.4032 0 31.2V38.4C0 43.6032 8.7912 48 19.2 48C29.6088 48 38.4 43.6032 38.4 38.4V31.2C38.4 36.4032 29.6088 40.8 19.2 40.8Z" fill="#53EE53"/>
<path d="M38.4 19.2C38.4 24.4032 29.6088 28.8 19.2 28.8C8.7912 28.8 0 24.4032 0 19.2V26.4C0 31.6032 8.7912 36 19.2 36C29.6088 36 38.4 31.6032 38.4 26.4V19.2Z" fill="#53EE53"/>
</svg>
