<svg width="52" height="48" viewBox="0 0 52 48" fill="none" xmlns="http://www.w3.org/2000/svg">
<path d="M12 0C7.1399 0 3.2 3.9399 3.2 8.8V18.8223C3.2 20.0927 2.4896 21.2552 1.36195 21.8355C0.556224 22.2226 0 23.0463 0 24C0 24.9536 0.556224 25.7773 1.36195 26.1645C2.4896 26.7446 3.2 27.9072 3.2 29.1776V39.2C3.2 44.0602 7.1399 48 12 48C13.3255 48 14.4 46.9254 14.4 45.6C14.4 44.2746 13.3255 43.2 12 43.2C9.79085 43.2 8 41.4093 8 39.2V29.1776C8 27.256 7.32723 25.4362 6.15546 24C7.32723 22.5638 8 20.7441 8 18.8223V8.8C8 6.59085 9.79085 4.8 12 4.8C13.3255 4.8 14.4 3.72547 14.4 2.4C14.4 1.07453 13.3255 0 12 0ZM39.2 0C44.0602 0 48 3.9399 48 8.8V18.8223C48 20.0927 48.7104 21.2552 49.8381 21.8355C50.6438 22.2226 51.2 23.0463 51.2 24C51.2 24.9536 50.6438 25.7773 49.8381 26.1645C48.7104 26.7446 48 27.9072 48 29.1776V39.2C48 44.0602 44.0602 48 39.2 48C37.8746 48 36.8 46.9254 36.8 45.6C36.8 44.2746 37.8746 43.2 39.2 43.2C41.4093 43.2 43.2 41.4093 43.2 39.2V29.1776C43.2 27.256 43.8726 25.4362 45.0445 24C43.8726 22.5638 43.2 20.7441 43.2 18.8223V8.8C43.2 6.59085 41.4093 4.8 39.2 4.8C37.8746 4.8 36.8 3.72547 36.8 2.4C36.8 1.07453 37.8746 0 39.2 0ZM19.5532 11.4052C18.7827 10.3266 17.2838 10.0768 16.2052 10.8472C15.1266 11.6176 14.8768 13.1166 15.6472 14.1952L22.6508 24.0003L15.6472 33.8051C14.8768 34.8838 15.1266 36.3827 16.2052 37.1533C17.2838 37.9235 18.7827 37.6736 19.5532 36.5952L25.6003 28.1293L31.6474 36.5952C32.4176 37.6736 33.9165 37.9235 34.9952 37.1533C36.0736 36.3827 36.3235 34.8838 35.5533 33.8051L28.5494 24.0003L35.5533 14.1952C36.3235 13.1166 36.0736 11.6176 34.9952 10.8472C33.9165 10.0768 32.4176 10.3266 31.6474 11.4052L25.6003 19.8711L19.5532 11.4052Z" fill="#53EE53"/>
</svg>
